Coordinates
version=1
nRows=16
nColumns=22
inDegrees=yes

Units are S.I. units (second, meters, Newtons, ...)
If the header above contains a line with 'inDegrees', this indicates whether rotational values are in degrees (yes) or radians (no).

endheader
time	pelvis_tilt	pelvis_list	pelvis_rotation	pelvis_tx	pelvis_ty	pelvis_tz	hip_flexion_r	hip_adduction_r	hip_rotation_r	knee_angle_r	ankle_angle_r	subtalar_angle_r	hip_flexion_l	hip_adduction_l	hip_rotation_l	knee_angle_l	ankle_angle_l	subtalar_angle_l	lumbar_extension	lumbar_bending	lumbar_rotation
      0.01000000	      1.71736254	     -2.33703397	     -6.23990420	     -1.30534059	      0.94101151	      0.00296642	     -2.22580305	      2.70413068	      0.78124682	     -6.11229045	      3.06874225	      1.05105699	     -2.34147301	     -3.48468655	    -12.80111274	     -8.89957428	      6.96822992	      3.04454856	     -3.50582623	     -1.29394096	     -0.28190518
      0.02000000	      1.71124410	     -2.35233882	     -6.20408060	     -1.30546018	      0.94100827	      0.00283661	     -2.22269775	      2.71756854	      0.76521444	     -6.09735070	      3.08557888	      1.05560926	     -2.32377157	     -3.49881556	    -12.77174002	     -8.89588330	      6.95120604	      3.05038857	     -3.52472980	     -1.27682481	     -0.23568641
      0.03000000	      1.70562272	     -2.35383414	     -6.15896656	     -1.30561569	      0.94100464	      0.00268826	     -2.21449321	      2.71623547	      0.74544883	     -6.08581122	      3.08577042	      1.06157498	     -2.30121224	     -3.49792969	    -12.73488467	     -8.89172632	      6.94578115	      3.05724392	     -3.54739859	     -1.27942708	     -0.19015394
      0.04000000	      1.69664280	     -2.35039328	     -6.10635106	     -1.30582118	      0.94099808	      0.00251205	     -2.19522314	      2.70917306	      0.70679299	     -6.07985720	      3.08322535	      1.07465612	     -2.27065115	     -3.49024464	    -12.67560418	     -8.88476482	      6.93665417	      3.06608457	     -3.57585114	     -1.28492986	     -0.15663730
      0.05000000	      1.67697160	     -2.34349410	     -6.01953466	     -1.30603996	      0.94097949	      0.00229892	     -2.15073216	      2.70011972	      0.60954211	     -6.10371672	      3.08835824	      1.11473745	     -2.22527384	     -3.48144014	    -12.57556100	     -8.86840533	      6.91629503	      3.07996267	     -3.59170292	     -1.29666341	     -0.17371118
      0.06000000	      1.67178642	     -2.34704116	     -5.97533241	     -1.30630917	      0.94098305	      0.00218339	     -2.12637958	      2.70313536	      0.58324635	     -6.10879792	      3.09248654	      1.12654517	     -2.18988451	     -3.48782567	    -12.54496858	     -8.87627656	      6.90752632	      3.08147569	     -3.63390517	     -1.30756114	     -0.13127063
      0.07000000	      1.64608537	     -2.35330087	     -5.90190234	     -1.30660567	      0.94096091	      0.00203593	     -2.04931782	      2.71189194	      0.45720555	     -6.17344069	      3.10959977	      1.17835000	     -2.12760243	     -3.50056093	    -12.47608223	     -8.87871795	      6.89822491	      3.08848329	     -3.65465292	     -1.31065139	     -0.14609462
      0.08000000	      1.64142422	     -2.36264310	     -5.86926600	     -1.30693523	      0.94097713	      0.00197680	     -2.00823805	      2.72260502	      0.42059728	     -6.20422832	      3.10969710	      1.19357303	     -2.08731335	     -3.51660552	    -12.44643688	     -8.89426662	      6.88972990	      3.09130761	     -3.70500103	     -1.31967013	     -0.10423313
      0.09000000	      1.63243000	     -2.38572784	     -5.83958498	     -1.30728467	      0.94099369	      0.00195362	     -1.93659580	      2.74998480	      0.32414906	     -6.28491488	      3.10840309	      1.21953472	     -2.04438368	     -3.55115815	    -12.42699801	     -8.90734565	      6.88218003	      3.09953977	     -3.75387362	     -1.31625208	     -0.06684288
      0.10000000	      1.57364398	     -2.41469408	     -5.79458440	     -1.30763503	      0.94094063	      0.00193850	     -1.79809808	      2.79008590	      0.15414469	     -6.39268749	      3.13793438	      1.29316012	     -1.93386175	     -3.60425813	    -12.42744040	     -8.94362657	      6.91583653	      3.14392209	     -3.74160843	     -1.30213356	     -0.08658176
      0.11000000	      1.54867601	     -2.45548168	     -5.79524399	     -1.30802603	      0.94095315	      0.00203188	     -1.69471137	      2.84105802	      0.04224619	     -6.49419624	      3.11943037	      1.32571763	     -1.86973577	     -3.66766817	    -12.44063165	     -8.97501052	      6.92002071	      3.17496116	     -3.77774128	     -1.28748641	     -0.01877350
      0.12000000	      1.51896276	     -2.50929523	     -5.80391596	     -1.30842834	      0.94096523	      0.00217680	     -1.57935698	      2.90859853	     -0.10438724	     -6.60822677	      3.10506785	      1.36057157	     -1.79402821	     -3.75128915	    -12.47674224	     -9.02400645	      6.94386478	      3.22175797	     -3.81073240	     -1.26288629	      0.04363806
      0.13000000	      1.44121067	     -2.57240764	     -5.80577216	     -1.30887533	      0.94090431	      0.00233858	     -1.40947190	      2.99249188	     -0.26364023	     -6.72310054	      3.09953134	      1.42392992	     -1.63078806	     -3.86053763	    -12.51021579	     -9.14166616	      7.01328318	      3.33413947	     -3.79469633	     -1.22632920	      0.10489137
      0.14000000	      1.43714036	     -2.63761108	     -5.84508607	     -1.30925707	      0.94096791	      0.00256263	     -1.31874862	      3.07059643	     -0.41652049	     -6.84324106	      3.06317031	      1.44032844	     -1.60020384	     -3.95247647	    -12.55111239	     -9.17192288	      7.01219341	      3.36169266	     -3.85567677	     -1.19775493	      0.19708218
      0.15000000	      1.42794310	     -2.70892005	     -5.86745239	     -1.30962910	      0.94100762	      0.00275522	     -1.22714225	      3.15549322	     -0.57343732	     -6.95988465	      3.04305479	      1.47023420	     -1.53862272	     -4.05748610	    -12.59921795	     -9.25188961	      7.05231033	      3.41275734	     -3.91119476	     -1.16137751	      0.28029369
      0.16000000	      1.39115343	     -2.76721654	     -5.87375236	     -1.30997905	      0.94098274	      0.00287901	     -1.12449585	      3.22695495	     -0.68373912	     -7.04226162	      3.04278483	      1.53543646	     -1.42183341	     -4.15242635	    -12.62306984	     -9.37893765	      7.12964115	      3.51895200	     -3.93033279	     -1.12837458	      0.34259974
